<svg viewBox="0 0 122 36" xmlns:xlink="http://www.w3.org/1999/xlink" xmlns="http://www.w3.org/2000/svg" width="122" height="36" fill="none"><script xmlns="" id="star-key-wallet" type="module" data-extension-id="hcjhpkgbmechpabifbggldplacolbkoh" data-extension-url="chrome-extension://hcjhpkgbmechpabifbggldplacolbkoh/" src="chrome-extension://hcjhpkgbmechpabifbggldplacolbkoh/scripts/injectScript.js"/><div xmlns="" id="in-page-channel-node-id" data-channel-name="in_page_channel_G3x_WU"/>
  <path fill="#3495DB" fill-rule="evenodd" d="M52.91 23.21C51.33 23.21 49.8 22.67 48.58 21.67 47.36 20.67 46.53 19.28 46.22 17.73 45.91 16.19 46.15 14.58 46.89 13.19 47.64 11.8 48.84 10.72 50.3 10.11 51.75 9.51 53.37 9.43 54.88 9.89 56.39 10.34 57.69 11.31 58.57 12.62 59.45 13.93 59.84 15.5 59.69 17.07 59.53 18.64 58.84 20.1 57.72 21.22 57.09 21.85 56.34 22.35 55.51 22.69 54.69 23.04 53.8 23.21 52.91 23.21ZM52.91 20.05C52 20.04 51.13 19.7 50.46 19.1 49.79 18.49 49.37 17.65 49.29 16.75 49.2 15.85 49.45 14.95 49.99 14.22 50.53 13.5 51.33 13 52.21 12.83 53.1 12.65 54.02 12.82 54.8 13.28 55.57 13.75 56.15 14.49 56.41 15.35 56.67 16.22 56.6 17.15 56.21 17.97 55.82 18.78 55.14 19.43 54.3 19.77 53.86 19.95 53.39 20.05 52.91 20.05V20.05ZM72.36 13.18V10.02H60.49V13.18H64.6V22.56H68.02V13.18H72.36ZM108.76 9.98H112.64L115.31 17.07 118.58 9.98H122L114.1 27.02H110.67L113.42 21.18 108.76 9.98Z" clip-rule="evenodd"/>
  <path fill="#3495DB" d="M92.1811 21.0528C92.1811 20.1083 91.4146 19.3426 90.4691 19.3426C89.5235 19.3426 88.757 20.1083 88.757 21.0528C88.757 21.9974 89.5235 22.7631 90.4691 22.7631C91.4146 22.7631 92.1811 21.9974 92.1811 21.0528Z"/>
  <path fill="#3495DB" fill-rule="evenodd" d="M3.17 22.16C4.28 22.86 5.58 23.23 6.9 23.21 8.22 23.19 9.51 22.79 10.6 22.06 11.7 21.32 12.56 20.29 13.08 19.08 13.59 17.86 13.75 16.53 13.52 15.23 13.29 13.93 12.69 12.72 11.79 11.76 10.89 10.8 9.73 10.11 8.45 9.8 7.17 9.48 5.82 9.54 4.58 9.97 3.33 10.4 2.24 11.19 1.43 12.23.5 13.43 0 14.76 0 17.39V27.01H3.17V22.16ZM3.17 16.4C3.17 17.31 3.51 18.18 4.11 18.85 4.72 19.52 5.56 19.95 6.46 20.04 7.36 20.12 8.26 19.88 8.99 19.34 9.72 18.8 10.22 18.01 10.4 17.12 10.58 16.23 10.42 15.31 9.95 14.53 9.49 13.75 8.75 13.18 7.88 12.92 7.01 12.65 6.08 12.72 5.26 13.11 4.44 13.49 3.79 14.17 3.45 15.01 3.26 15.45 3.17 15.92 3.17 16.4V16.4ZM97.45 22.16C98.56 22.86 99.86 23.23 101.18 23.21 102.5 23.19 103.78 22.79 104.88 22.06 105.97 21.32 106.83 20.29 107.35 19.08 107.87 17.86 108.02 16.53 107.8 15.23 107.57 13.93 106.97 12.72 106.07 11.76 105.17 10.8 104.01 10.11 102.73 9.8 101.45 9.48 100.1 9.54 98.85 9.97 97.61 10.4 96.51 11.19 95.7 12.23 94.78 13.43 94.28 14.76 94.28 17.39V27.01H97.45V22.16ZM97.45 16.4C97.44 17.31 97.78 18.18 98.39 18.85 99 19.52 99.83 19.95 100.74 20.04 101.64 20.12 102.54 19.88 103.27 19.34 104 18.8 104.5 18.01 104.68 17.12 104.85 16.23 104.69 15.31 104.23 14.53 103.76 13.75 103.02 13.18 102.16 12.92 101.29 12.65 100.36 12.72 99.54 13.11 98.72 13.49 98.07 14.17 97.72 15.01 97.54 15.45 97.45 15.92 97.45 16.4ZM25.7 22.16C24.58 22.86 23.29 23.23 21.97 23.21 20.65 23.19 19.36 22.79 18.26 22.06 17.17 21.32 16.31 20.29 15.79 19.08 15.27 17.86 15.12 16.53 15.35 15.23 15.57 13.93 16.17 12.72 17.07 11.76 17.97 10.8 19.13 10.11 20.42 9.8 21.7 9.48 23.04 9.54 24.29 9.97 25.53 10.4 26.63 11.19 27.44 12.23 28.36 13.43 28.87 14.76 28.87 17.39V23.05H25.7V22.16ZM25.7 16.4C25.7 17.31 25.36 18.18 24.75 18.85 24.14 19.52 23.31 19.95 22.41 20.04 21.5 20.12 20.6 19.88 19.87 19.34 19.15 18.8 18.64 18.01 18.47 17.12 18.29 16.23 18.45 15.31 18.91 14.53 19.38 13.75 20.12 13.18 20.99 12.92 21.85 12.65 22.79 12.72 23.61 13.11 24.43 13.49 25.07 14.17 25.42 15.01 25.6 15.45 25.7 15.92 25.7 16.4V16.4ZM83.84 22.16C82.72 22.86 81.43 23.23 80.11 23.21 78.79 23.19 77.5 22.79 76.41 22.06 75.31 21.32 74.45 20.29 73.93 19.08 73.41 17.86 73.26 16.53 73.49 15.23 73.72 13.93 74.32 12.72 75.22 11.76 76.12 10.8 77.28 10.11 78.56 9.8 79.84 9.48 81.18 9.54 82.43 9.97 83.68 10.4 84.77 11.19 85.58 12.23 86.51 13.43 87.01 14.76 87.01 17.39V23.05H83.84V22.16ZM83.84 16.4C83.84 17.31 83.5 18.18 82.89 18.85 82.29 19.52 81.45 19.95 80.55 20.04 79.65 20.12 78.74 19.88 78.02 19.34 77.29 18.8 76.79 18.01 76.61 17.12 76.43 16.23 76.59 15.31 77.06 14.53 77.52 13.75 78.26 13.18 79.13 12.92 80 12.65 80.93 12.72 81.75 13.11 82.57 13.49 83.21 14.17 83.56 15.01 83.74 15.45 83.84 15.92 83.84 16.4V16.4ZM35.53 19.42C36.26 19.9 37.14 20.11 38 20.01 38.87 19.9 39.67 19.48 40.26 18.84 40.85 18.19 41.18 17.35 41.2 16.48 41.22 15.61 40.93 14.76 40.37 14.08 39.82 13.41 39.04 12.95 38.18 12.8 37.32 12.65 36.43 12.82 35.69 13.27 34.94 13.72 34.37 14.42 34.1 15.25 33.82 16.08 33.86 16.98 34.19 17.79 34.47 18.45 34.94 19.02 35.53 19.42V19.42ZM42.72 7.96V5.01C42.15 5.01 41.63 5.01 41.14 5 38.99 4.99 37.53 4.99 36.4 5.2 34.17 5.6 32.01 7.24 31.34 9.46 31 10.62 30.75 14.45 30.75 16.24V16.25C30.71 17.78 31.2 19.27 32.12 20.5 33.04 21.72 34.35 22.59 35.83 22.98 37.31 23.37 38.88 23.25 40.28 22.64 41.69 22.02 42.84 20.96 43.56 19.61 44.29 18.26 44.53 16.71 44.26 15.2 44 13.69 43.23 12.32 42.08 11.31 40.94 10.29 39.49 9.69 37.96 9.6 36.43 9.51 34.92 9.94 33.66 10.81 34.17 9.42 35.62 8.38 37.02 8.12 38.26 7.89 39.83 7.92 41.33 7.95 41.8 7.95 42.27 7.96 42.72 7.96Z" clip-rule="evenodd"/>
</svg>